<?xml version="1.0" encoding="UTF-8"?><svg id="Icon_Only" xmlns="http://www.w3.org/2000/svg" viewBox="0 0 250 250"><defs><style>.cls-1{fill:rgba(219,81,146,.95);}.cls-2{fill:#ffcc57;}.cls-3{fill:#ef802f;}</style></defs><g id="Icon_Only-2"><g id="Computer" transform="rotate(0 319.3893 397.6945)"><g transform="matrix(1 0 0 1 0 0)"><g><path class="cls-2" d="M44.16,104.79l-13.97,2.49v43.54l26.57,15.47-12.47-7.36v-54.14h-.12Z"/><path class="cls-3" d="M44.16,98.8l-13.97,8.48,13.97-2.62v-5.86Z"/><path class="cls-3" d="M82.46,92.44l78.09-44.53-38.92-22.7L44.66,69.86l37.67,22.33v.25h.12Z"/><path class="cls-2" d="M82.46,181.39l78.09-44.53V47.91l-78.09,44.53v88.94h0Zm10.48-17.09l-4.74,2.74v-5.49l4.74-2.74v5.49Zm7.11-3.99l-4.74,2.74v-5.61l4.74-2.74v5.61Zm7.11-4.24l-4.74,2.74v-5.49l4.74-2.74v5.49Zm48.65-25.95l-4.74,2.74v-5.49l4.74-2.74v5.49Zm-67.86-33.43l62-35.43,5.49-3.49v53.14l-.37-.25-67.11,38.92,.12-6.74v-46.16h-.12Z"/><path class="cls-1" d="M75.6,167.91c1,0,1.87,1.5,1.87,3.24,0,1.87-.87,3.24-1.87,3.24-.5,0-1-.37-1.25-.87l-2.49,1.62,10.48,6.24h.12V92.19l-37.8-22.33-.5-.25v89.44l12.47,7.36,12.35,7.24,4.74-2.99c.25-1.62,1-2.74,1.87-2.74h0Zm1.87-12.47l-25.57-14.72-2.87-4.62,28.44,16.47v2.87Zm0-8.98l-25.57-14.72-2.87-4.62,28.44,16.47v2.87Zm0,15.22v2.74l-25.57-14.72-2.87-4.62,28.44,16.59Z"/><path class="cls-3" d="M155.06,110.78l-5.11-3.24v-.12l-62,35.43-.12,6.74c.12,0,67.24-38.8,67.24-38.8h0Z"/><path class="cls-1" d="M149.95,107.54l5.11,3.24,.37,.25V57.76l-5.49,3.49v46.28Z"/><path class="cls-2" d="M49.03,127.12l2.87,4.62,25.57,14.72v-2.74c0-.12-28.44-16.59-28.44-16.59Z"/><path class="cls-2" d="M49.03,136.1l2.87,4.62,25.57,14.72v-2.74c0-.12-28.44-16.59-28.44-16.59Z"/><path class="cls-2" d="M51.9,149.7l25.57,14.72v-2.74l-28.44-16.47,2.87,4.49h0Z"/><path class="cls-3" d="M75.6,174.52c1,0,1.87-1.5,1.87-3.24,0-1.87-.87-3.24-1.87-3.24-.87,0-1.62,1.12-1.87,2.62l.37-.25c.62-.37,1.5-.25,2,.5,.37,.62,.25,1.5-.37,2l-1.37,.87c.25,.37,.75,.75,1.25,.75Z"/><path class="cls-2" d="M114.4,182.26c-.5-.25-1-.25-1.5,0l-31.44,18.59-25.32-15.47,15.72-10.23,2.49-1.62,1.37-.87c.62-.37,.87-1.25,.5-2-.37-.62-1.25-.87-2-.5l-.37,.25-4.74,2.99-16.47,10.85c-.62,.37-.87,1.37-.37,2,.12,.12,.25,.37,.5,.37l27.94,17.09c.5,.25,1,.25,1.5,0l31.44-18.59,8.23,5.24v-3.37c0-.12-7.48-4.74-7.48-4.74h0Z"/><path class="cls-3" d="M165.42,208.21l54.39-30.56-43.66-25.95-54.14,30.56,43.41,25.95Zm11.6-50.27l3.99,2.37-3.99,2.25-3.87-2.37,3.87-2.25Z"/><path class="cls-2" d="M165.42,208.21v16.59l54.39-30.56v-16.59l-54.39,30.56Zm4.49,11.35l-2.25,1.25v-2.62l2.25-1.25v2.62Zm3.12-1.62l-2.25,1.25v-2.62l2.25-1.25v2.62Zm34.8-24.82l-28.57,16.59v-1.62l28.57-16.59v1.62Z"/><path class="cls-1" d="M165.42,208.21l-43.41-25.95h-.12v16.47l43.54,25.95v-16.47Zm-12.6,5.99l-28.57-16.59v-1.62l28.57,16.59v1.62Zm0-2.99l-28.57-16.59v-1.62l28.57,16.59v1.62Z"/><path class="cls-2" d="M124.25,197.6l28.57,16.59v-1.62l-28.57-16.59v1.62Z"/><path class="cls-2" d="M124.25,194.61l28.57,16.59v-1.62l-28.57-16.59v1.62Z"/><path class="cls-3" d="M179.26,209.7l28.57-16.59v-1.62l-28.57,16.59v1.62Z"/><path class="cls-3" d="M167.66,220.81l2.25-1.25v-2.62l-2.25,1.25v2.62Z"/><path class="cls-3" d="M170.78,219.18l2.25-1.25v-2.62l-2.25,1.25v2.62Z"/></g></g></g></g></svg>