<?xml version="1.0" encoding="UTF-8"?><svg id="Icon_Only" xmlns="http://www.w3.org/2000/svg" viewBox="0 0 100 105"><defs><style>.cls-1{fill:rgba(219,81,146,.95);}.cls-2{fill:#ffcc57;}.cls-3{fill:#ef802f;}</style></defs><g id="Icon_Only-2"><g id="Computer" transform="rotate(0 319.3893 397.6945)"><g transform="matrix(1 0 0 1 0 0)"><g><path class="cls-2" d="M7.37,41.87l-7.37,1.31v22.9l14.01,8.14-6.58-3.87v-28.48h-.07Z"/><path class="cls-3" d="M7.37,38.72L0,43.18l7.37-1.38v-3.08Z"/><path class="cls-3" d="M27.57,35.37L68.75,11.94,48.22,0,7.63,23.49l19.87,11.75v.13h.07Z"/><path class="cls-2" d="M27.57,82.16l41.18-23.43V11.94L27.57,35.37v46.79h0Zm5.53-8.99l-2.5,1.44v-2.89l2.5-1.44v2.89Zm3.75-2.1l-2.5,1.44v-2.95l2.5-1.44v2.95Zm3.75-2.23l-2.5,1.44v-2.89l2.5-1.44v2.89Zm25.66-13.65l-2.5,1.44v-2.89l2.5-1.44v2.89ZM30.46,37.6L63.16,18.97l2.89-1.84v27.96l-.2-.13-35.39,20.47,.07-3.54v-24.28h-.07Z"/><path class="cls-1" d="M23.95,75.07c.53,0,.99,.79,.99,1.71,0,.98-.46,1.71-.99,1.71-.26,0-.53-.2-.66-.46l-1.32,.85,5.53,3.28h.07V35.24L7.63,23.49l-.26-.13v47.05l6.58,3.87,6.51,3.81,2.5-1.57c.13-.85,.53-1.44,.99-1.44h0Zm.99-6.56l-13.49-7.74-1.51-2.43,15,8.66v1.51Zm0-4.72l-13.49-7.74-1.51-2.43,15,8.66v1.51Zm0,8.01v1.44l-13.49-7.74-1.51-2.43,15,8.73Z"/><path class="cls-3" d="M65.86,45.02l-2.7-1.71v-.07L30.46,61.88l-.07,3.54c.07,0,35.46-20.41,35.46-20.41h0Z"/><path class="cls-1" d="M63.16,43.31l2.7,1.71,.2,.13V17.13l-2.89,1.84v24.35Z"/><path class="cls-2" d="M9.93,53.62l1.51,2.43,13.49,7.74v-1.44c0-.07-15-8.73-15-8.73Z"/><path class="cls-2" d="M9.93,58.34l1.51,2.43,13.49,7.74v-1.44c0-.07-15-8.73-15-8.73Z"/><path class="cls-2" d="M11.45,65.49l13.49,7.74v-1.44l-15-8.66,1.51,2.36h0Z"/><path class="cls-3" d="M23.95,78.55c.53,0,.99-.79,.99-1.71,0-.98-.46-1.71-.99-1.71-.46,0-.86,.59-.99,1.38l.2-.13c.33-.2,.79-.13,1.05,.26,.2,.33,.13,.79-.2,1.05l-.72,.46c.13,.2,.39,.39,.66,.39Z"/><path class="cls-2" d="M44.41,82.62c-.26-.13-.53-.13-.79,0l-16.58,9.78-13.36-8.14,8.29-5.38,1.32-.85,.72-.46c.33-.2,.46-.66,.26-1.05-.2-.33-.66-.46-1.05-.26l-.2,.13-2.5,1.57-8.68,5.71c-.33,.2-.46,.72-.2,1.05,.07,.07,.13,.2,.26,.2l14.74,8.99c.26,.13,.53,.13,.79,0l16.58-9.78,4.34,2.76v-1.77c0-.07-3.95-2.49-3.95-2.49h0Z"/><path class="cls-3" d="M71.32,96.27l28.68-16.08-23.03-13.65-28.55,16.08,22.89,13.65Zm6.12-26.45l2.11,1.25-2.11,1.18-2.04-1.25,2.04-1.18Z"/><path class="cls-2" d="M71.32,96.27v8.73l28.68-16.08v-8.73l-28.68,16.08Zm2.37,5.97l-1.18,.66v-1.38l1.18-.66v1.38Zm1.64-.85l-1.18,.66v-1.38l1.18-.66v1.38Zm18.36-13.06l-15.07,8.73v-.85l15.07-8.73v.85Z"/><path class="cls-1" d="M71.32,96.27l-22.89-13.65h-.07v8.66l22.96,13.65v-8.66Zm-6.64,3.15l-15.07-8.73v-.85l15.07,8.73v.85Zm0-1.57l-15.07-8.73v-.85l15.07,8.73v.85Z"/><path class="cls-2" d="M49.61,90.69l15.07,8.73v-.85l-15.07-8.73v.85Z"/><path class="cls-2" d="M49.61,89.12l15.07,8.73v-.85l-15.07-8.73v.85Z"/><path class="cls-3" d="M78.62,97.06l15.07-8.73v-.85l-15.07,8.73v.85Z"/><path class="cls-3" d="M72.5,102.9l1.18-.66v-1.38l-1.18,.66v1.38Z"/><path class="cls-3" d="M74.14,102.05l1.18-.66v-1.38l-1.18,.66v1.38Z"/></g></g></g></g></svg>