<?xml version="1.0" encoding="UTF-8"?><svg id="Icon_Gradient" xmlns="http://www.w3.org/2000/svg" xmlns:xlink="http://www.w3.org/1999/xlink" viewBox="0 0 250 250"><defs><style>.cls-1{fill:rgba(219,81,146,.95);}.cls-2{fill:#ffcc57;}.cls-3{fill:#3b3b3b;}.cls-4{fill:#ef802f;}.cls-5{fill:url(#linear-gradient);}</style><linearGradient id="linear-gradient" x1="125" y1="262.93" x2="125" y2="-58.22" gradientTransform="matrix(1, 0, 0, 1, 0, 0)" gradientUnits="userSpaceOnUse"><stop offset="0" stop-color="#1f001f" stop-opacity=".82"/><stop offset="1" stop-color="#520223" stop-opacity=".34"/></linearGradient></defs><g id="Gradient"><rect id="Background" class="cls-3" y="0" width="250" height="250"/><g id="Main_Text_Box" transform="rotate(0 365.4349 384.2141)"><rect class="cls-5" x="0" y="0" width="250" height="250"/></g></g><g id="Computer" transform="rotate(0 319.3893 397.6945)"><g transform="matrix(1 0 0 1 0 0)"><g><path class="cls-2" d="M51.35,106.59l-12.73,2.27v39.67l24.21,14.09-11.37-6.71v-49.33h-.11Z"/><path class="cls-4" d="M51.35,101.13l-12.73,7.73,12.73-2.39v-5.34Z"/><path class="cls-4" d="M86.24,95.34l71.15-40.58-35.46-20.69L51.81,74.76l34.32,20.34v.23h.11Z"/><path class="cls-2" d="M86.24,176.37l71.15-40.58V54.76l-71.15,40.58v81.04h0Zm9.55-15.57l-4.32,2.5v-5l4.32-2.5v5Zm6.48-3.64l-4.32,2.5v-5.11l4.32-2.5v5.11Zm6.48-3.86l-4.32,2.5v-5l4.32-2.5v5Zm44.33-23.64l-4.32,2.5v-5l4.32-2.5v5Zm-61.83-30.46l56.49-32.28,5-3.18v48.42l-.34-.23-61.15,35.46,.11-6.14v-42.05h-.11Z"/><path class="cls-1" d="M79.99,164.1c.91,0,1.7,1.36,1.7,2.96,0,1.7-.8,2.96-1.7,2.96-.45,0-.91-.34-1.14-.8l-2.27,1.48,9.55,5.68h.11V95.11l-34.44-20.34-.45-.23v81.49l11.37,6.71,11.25,6.59,4.32-2.73c.23-1.48,.91-2.5,1.7-2.5h0Zm1.7-11.37l-23.3-13.41-2.61-4.21,25.91,15v2.61Zm0-8.18l-23.3-13.41-2.61-4.21,25.91,15v2.61Zm0,13.87v2.5l-23.3-13.41-2.61-4.21,25.91,15.12Z"/><path class="cls-4" d="M152.39,112.04l-4.66-2.96v-.11l-56.49,32.28-.11,6.14c.11,0,61.26-35.35,61.26-35.35h0Z"/><path class="cls-1" d="M147.73,109.09l4.66,2.96,.34,.23V63.74l-5,3.18v42.17Z"/><path class="cls-2" d="M55.78,126.93l2.61,4.21,23.3,13.41v-2.5c0-.11-25.91-15.12-25.91-15.12Z"/><path class="cls-2" d="M55.78,135.12l2.61,4.21,23.3,13.41v-2.5c0-.11-25.91-15.12-25.91-15.12Z"/><path class="cls-2" d="M58.4,147.5l23.3,13.41v-2.5l-25.91-15,2.61,4.09h0Z"/><path class="cls-4" d="M79.99,170.12c.91,0,1.7-1.36,1.7-2.96,0-1.7-.8-2.96-1.7-2.96-.8,0-1.48,1.02-1.7,2.39l.34-.23c.57-.34,1.36-.23,1.82,.45,.34,.57,.23,1.36-.34,1.82l-1.25,.8c.23,.34,.68,.68,1.14,.68Z"/><path class="cls-2" d="M115.34,177.17c-.45-.23-.91-.23-1.36,0l-28.64,16.93-23.07-14.09,14.32-9.32,2.27-1.48,1.25-.8c.57-.34,.8-1.14,.45-1.82-.34-.57-1.14-.8-1.82-.45l-.34,.23-4.32,2.73-15,9.89c-.57,.34-.8,1.25-.34,1.82,.11,.11,.23,.34,.45,.34l25.46,15.57c.45,.23,.91,.23,1.36,0l28.64-16.93,7.5,4.77v-3.07c0-.11-6.82-4.32-6.82-4.32h0Z"/><path class="cls-4" d="M161.82,200.81l49.55-27.85-39.78-23.64-49.33,27.85,39.55,23.64Zm10.57-45.8l3.64,2.16-3.64,2.05-3.52-2.16,3.52-2.05Z"/><path class="cls-2" d="M161.82,200.81v15.12l49.55-27.85v-15.12l-49.55,27.85Zm4.09,10.34l-2.05,1.14v-2.39l2.05-1.14v2.39Zm2.84-1.48l-2.05,1.14v-2.39l2.05-1.14v2.39Zm31.71-22.62l-26.03,15.12v-1.48l26.03-15.12v1.48Z"/><path class="cls-1" d="M161.82,200.81l-39.55-23.64h-.11v15l39.67,23.64v-15Zm-11.48,5.46l-26.03-15.12v-1.48l26.03,15.12v1.48Zm0-2.73l-26.03-15.12v-1.48l26.03,15.12v1.48Z"/><path class="cls-2" d="M124.32,191.15l26.03,15.12v-1.48l-26.03-15.12v1.48Z"/><path class="cls-2" d="M124.32,188.42l26.03,15.12v-1.48l-26.03-15.12v1.48Z"/><path class="cls-4" d="M174.44,202.17l26.03-15.12v-1.48l-26.03,15.12v1.48Z"/><path class="cls-4" d="M163.87,212.29l2.05-1.14v-2.39l-2.05,1.14v2.39Z"/><path class="cls-4" d="M166.71,210.81l2.05-1.14v-2.39l-2.05,1.14v2.39Z"/></g></g></g></svg>