<?xml version="1.0" encoding="iso-8859-1"?>
<!-- Generator: Adobe Illustrator 26.3.1, SVG Export Plug-In . SVG Version: 6.00 Build 0)  -->
<svg version="1.1" id="Layer_3" xmlns="http://www.w3.org/2000/svg" xmlns:xlink="http://www.w3.org/1999/xlink" x="0px" y="0px"
	 viewBox="0 0 256 256" style="enable-background:new 0 0 256 256;" xml:space="preserve">
<g id="Icon_Gradient__Circle_">
	<g>
		
			<linearGradient id="SVGID_1_" gradientUnits="userSpaceOnUse" x1="128" y1="850.05" x2="128" y2="594.05" gradientTransform="matrix(1 0 0 1 0 -594.05)">
			<stop  offset="0" style="stop-color:#250C24"/>
			<stop  offset="1" style="stop-color:#412230"/>
		</linearGradient>
		<circle style="fill:url(#SVGID_1_);" cx="128" cy="128" r="128"/>
		<g id="Computer" transform="rotate(0 319.3893 397.6945)">
			<g transform="matrix(1 0 0 1 0 0)">
				<g>
					<path style="fill:#FFCC57;" d="M52.58,109.15l-13.04,2.33v40.62l24.79,14.43l-11.64-6.87v-50.51h-0.12L52.58,109.15z"/>
					<path style="fill:#EF802F;" d="M52.58,103.56l-13.04,7.91l13.04-2.44V103.56z"/>
					<path style="fill:#EF802F;" d="M88.31,97.62l72.86-41.55l-36.31-21.18L53.05,76.56L88.2,97.39v0.23h0.12H88.31z"/>
					<path style="fill:#FFCC57;" d="M88.31,180.61l72.86-41.55V56.08L88.31,97.63V180.61L88.31,180.61L88.31,180.61z M98.09,164.67
						l-4.42,2.56v-5.12l4.42-2.56V164.67z M104.72,160.95l-4.42,2.56v-5.24l4.42-2.56V160.95z M111.35,156.99l-4.42,2.56v-5.12
						l4.42-2.56V156.99z M156.74,132.78l-4.42,2.56v-5.12l4.42-2.56V132.78z M93.43,101.59l57.84-33.05l5.12-3.26v49.58l-0.35-0.23
						l-62.61,36.31l0.12-6.28V101.6h-0.12L93.43,101.59z"/>
					<path d="M81.91,168.04c0.93,0,1.75,1.4,1.75,3.03c0,1.75-0.82,3.03-1.75,3.03c-0.47,0-0.93-0.35-1.16-0.82l-2.33,1.51
						l9.78,5.82h0.12V97.39L53.06,76.56l-0.47-0.23v83.45l11.64,6.87l11.52,6.75l4.42-2.79c0.23-1.51,0.93-2.56,1.75-2.56l0,0
						L81.91,168.04z M83.66,156.4L59.8,142.67l-2.68-4.31l26.54,15.36V156.4z M83.66,148.02L59.8,134.29l-2.68-4.31l26.54,15.36
						V148.02z M83.66,162.22v2.56L59.8,151.05l-2.68-4.31L83.66,162.22z"/>
					<path style="fill:#EF802F;" d="M156.05,114.73l-4.77-3.03v-0.12l-57.84,33.05l-0.12,6.28c0.12,0,62.73-36.2,62.73-36.2l0,0
						V114.73z"/>
					<path d="M151.28,111.71l4.77,3.03l0.35,0.23v-49.7l-5.12,3.26L151.28,111.71L151.28,111.71z"/>
					<path style="fill:#FFCC57;" d="M57.12,129.98l2.68,4.31l23.86,13.73v-2.56C83.66,145.34,57.12,129.98,57.12,129.98z"/>
					<path style="fill:#FFCC57;" d="M57.12,138.36l2.68,4.31l23.86,13.73v-2.56C83.66,153.72,57.12,138.36,57.12,138.36z"/>
					<path style="fill:#FFCC57;" d="M59.8,151.04l23.86,13.73v-2.56l-26.54-15.36L59.8,151.04C59.8,151.04,59.8,151.04,59.8,151.04z
						"/>
					<path style="fill:#EF802F;" d="M81.91,174.2c0.93,0,1.75-1.4,1.75-3.03c0-1.75-0.82-3.03-1.75-3.03
						c-0.82,0-1.51,1.05-1.75,2.44l0.35-0.23c0.58-0.35,1.4-0.23,1.86,0.47c0.35,0.58,0.23,1.4-0.35,1.86l-1.28,0.82
						c0.23,0.35,0.7,0.7,1.16,0.7L81.91,174.2z"/>
					<path style="fill:#FFCC57;" d="M118.11,181.42c-0.47-0.23-0.93-0.23-1.4,0l-29.33,17.34l-23.63-14.43l14.66-9.54l2.33-1.51
						l1.28-0.82c0.58-0.35,0.82-1.16,0.47-1.86c-0.35-0.58-1.16-0.82-1.86-0.47l-0.35,0.23l-4.42,2.79L60.5,183.28
						c-0.58,0.35-0.82,1.28-0.35,1.86c0.12,0.12,0.23,0.35,0.47,0.35l26.07,15.94c0.47,0.23,0.93,0.23,1.4,0l29.33-17.34l7.68,4.89
						v-3.14c0-0.11-6.98-4.42-6.98-4.42l0,0H118.11z"/>
					<path style="fill:#EF802F;" d="M165.71,205.63l50.74-28.51l-40.73-24.21l-50.51,28.51L165.71,205.63L165.71,205.63z
						 M176.53,158.73l3.72,2.21l-3.72,2.1l-3.61-2.21L176.53,158.73z"/>
					<path style="fill:#FFCC57;" d="M165.71,205.63v15.48l50.74-28.51v-15.48L165.71,205.63z M169.9,216.22l-2.1,1.16v-2.44
						l2.1-1.16V216.22z M172.81,214.71l-2.1,1.16v-2.44l2.1-1.16V214.71z M205.28,191.55l-26.65,15.48v-1.51l26.65-15.48V191.55z"/>
					<path d="M165.71,205.63l-40.5-24.21h-0.12v15.36l40.62,24.21V205.63L165.71,205.63L165.71,205.63z M153.95,211.22l-26.65-15.48
						v-1.51l26.65,15.48V211.22z M153.95,208.43l-26.65-15.48v-1.51l26.65,15.48V208.43z"/>
					<path style="fill:#FFCC57;" d="M127.3,195.74l26.65,15.48v-1.51l-26.65-15.48C127.3,194.23,127.3,195.74,127.3,195.74z"/>
					<path style="fill:#FFCC57;" d="M127.3,192.94l26.65,15.48v-1.51l-26.65-15.48C127.3,191.43,127.3,192.94,127.3,192.94z"/>
					<path style="fill:#EF802F;" d="M178.63,207.03l26.65-15.48v-1.51l-26.65,15.48V207.03z"/>
					<path style="fill:#EF802F;" d="M167.8,217.38l2.1-1.16v-2.44l-2.1,1.16V217.38z"/>
					<path style="fill:#EF802F;" d="M170.71,215.87l2.1-1.16v-2.44l-2.1,1.16V215.87z"/>
				</g>
			</g>
		</g>
	</g>
</g>
<g id="Icon_x2B_Gradient__x28_Circle_x29_">
	<g>
		
			<linearGradient id="SVGID_00000047740685906019089200000008425332643904354232_" gradientUnits="userSpaceOnUse" x1="127" y1="0.5" x2="127" y2="256.5" gradientTransform="matrix(1 0 0 -1 0 256)">
			<stop  offset="0" style="stop-color:#250C24"/>
			<stop  offset="1" style="stop-color:#412230"/>
		</linearGradient>
		<circle style="fill:url(#SVGID_00000047740685906019089200000008425332643904354232_);" cx="127" cy="127.5" r="128"/>
		<g id="Computer_00000016760608433134818140000002789094123658173855_" transform="rotate(0 319.3893 397.6945)">
			<g transform="matrix(1 0 0 1 0 0)">
				<g>
					<path style="fill:#FFCC57;" d="M51.582,108.646l-13.036,2.328v40.618l24.79,14.431l-11.639-6.867v-50.511L51.582,108.646
						L51.582,108.646z"/>
					<path style="fill:#EF802F;" d="M51.582,103.059l-13.036,7.914l13.036-2.444V103.059z"/>
					<path style="fill:#EF802F;" d="M87.313,97.124l72.857-41.549l-36.312-21.182L52.048,76.058l35.148,20.833v0.232L87.313,97.124
						L87.313,97.124z"/>
					<path style="fill:#FFCC57;" d="M87.313,180.106l72.857-41.549V55.575L87.313,97.124L87.313,180.106L87.313,180.106z
						 M97.089,164.161l-4.423,2.56V161.6l4.423-2.56V164.161z M103.723,160.437l-4.423,2.56v-5.238l4.423-2.56V160.437z
						 M110.357,156.48l-4.423,2.56v-5.121l4.423-2.56V156.48z M155.747,132.272l-4.423,2.56v-5.121l4.423-2.56V132.272z
						 M92.434,101.081l57.843-33.054l5.121-3.258v49.58l-0.349-0.232l-62.615,36.312l0.117-6.284v-43.062h-0.117V101.081z"/>
					<path style="fill:#DB5192;fill-opacity:0.95;" d="M80.912,167.536c0.931,0,1.746,1.397,1.746,3.026
						c0,1.746-0.815,3.026-1.746,3.026c-0.466,0-0.931-0.349-1.164-0.815l-2.328,1.513l9.776,5.819h0.117V96.891L52.048,76.057
						l-0.466-0.232v83.448l11.639,6.867l11.522,6.75l4.423-2.793C79.398,168.584,80.097,167.536,80.912,167.536L80.912,167.536z
						 M82.658,155.898l-23.859-13.733l-2.677-4.306l26.536,15.363V155.898z M82.658,147.518l-23.859-13.733l-2.677-4.306
						l26.536,15.363V147.518z M82.658,161.717v2.56l-23.859-13.733l-2.677-4.306L82.658,161.717z"/>
					<path style="fill:#EF802F;" d="M155.048,114.232l-4.772-3.026v-0.117l-57.843,33.054l-0.117,6.284
						C92.434,150.427,155.048,114.232,155.048,114.232L155.048,114.232z"/>
					<path style="fill:#DB5192;fill-opacity:0.95;" d="M150.277,111.206l4.772,3.026l0.349,0.232V64.769l-5.121,3.258V111.206z"/>
					<path style="fill:#FFCC57;" d="M56.122,129.478l2.677,4.306l23.859,13.733v-2.56C82.658,144.841,56.122,129.478,56.122,129.478
						z"/>
					<path style="fill:#FFCC57;" d="M56.122,137.858l2.677,4.306l23.859,13.733v-2.56C82.658,153.221,56.122,137.858,56.122,137.858
						z"/>
					<path style="fill:#FFCC57;" d="M58.799,150.544l23.859,13.733v-2.56l-26.536-15.363L58.799,150.544L58.799,150.544z"/>
					<path style="fill:#EF802F;" d="M80.912,173.705c0.931,0,1.746-1.397,1.746-3.026c0-1.746-0.815-3.026-1.746-3.026
						c-0.815,0-1.513,1.048-1.746,2.444l0.349-0.232c0.582-0.349,1.397-0.232,1.862,0.466c0.349,0.582,0.232,1.397-0.349,1.863
						l-1.28,0.815C79.981,173.356,80.446,173.705,80.912,173.705z"/>
					<path style="fill:#FFCC57;" d="M117.107,180.92c-0.466-0.232-0.931-0.232-1.397,0l-29.328,17.341L62.756,183.83l14.665-9.544
						l2.328-1.513l1.28-0.815c0.582-0.349,0.815-1.164,0.466-1.863c-0.349-0.582-1.164-0.815-1.863-0.466l-0.349,0.232l-4.423,2.793
						l-15.363,10.125c-0.582,0.349-0.815,1.28-0.349,1.863c0.117,0.117,0.232,0.349,0.466,0.349l26.07,15.945
						c0.466,0.232,0.931,0.232,1.397,0l29.328-17.341l7.681,4.889v-3.143C124.091,185.227,117.107,180.92,117.107,180.92
						L117.107,180.92z"/>
					<path style="fill:#EF802F;" d="M164.709,205.128l50.743-28.514l-40.735-24.208l-50.511,28.514L164.709,205.128z
						 M175.533,158.225l3.724,2.211l-3.724,2.095l-3.608-2.211L175.533,158.225z"/>
					<path style="fill:#FFCC57;" d="M164.709,205.128v15.479l50.743-28.514v-15.479L164.709,205.128z M168.898,215.72l-2.095,1.164
						v-2.444l2.095-1.164V215.72z M171.808,214.206l-2.095,1.164v-2.444l2.095-1.164V214.206z M204.279,191.046l-26.652,15.479
						v-1.513l26.652-15.479V191.046z"/>
					<path style="fill:#DB5192;fill-opacity:0.95;" d="M164.709,205.128l-40.502-24.208h-0.117v15.363l40.618,24.208v-15.363
						H164.709z M152.953,210.715l-26.652-15.479v-1.513l26.652,15.479V210.715z M152.953,207.922l-26.652-15.479v-1.513
						l26.652,15.479V207.922z"/>
					<path style="fill:#FFCC57;" d="M126.302,195.236l26.652,15.479v-1.513l-26.652-15.479V195.236z"/>
					<path style="fill:#FFCC57;" d="M126.302,192.442l26.652,15.479v-1.513l-26.652-15.479V192.442z"/>
					<path style="fill:#EF802F;" d="M177.628,206.525l26.652-15.479v-1.513l-26.652,15.479V206.525z"/>
					<path style="fill:#EF802F;" d="M166.804,216.883l2.095-1.164v-2.444l-2.095,1.164V216.883z"/>
					<path style="fill:#EF802F;" d="M169.713,215.37l2.095-1.164v-2.444l-2.095,1.164V215.37z"/>
				</g>
			</g>
		</g>
	</g>
</g>
</svg>
